<svg id="レイヤー_1" data-name="レイヤー 1" xmlns="http://www.w3.org/2000/svg" xmlns:xlink="http://www.w3.org/1999/xlink" viewBox="0 0 285.17 100"><defs><style>.cls-1{fill:url(#名称未設定グラデーション_24);}.cls-2{fill:url(#名称未設定グラデーション_24-2);}.cls-3{fill:url(#名称未設定グラデーション_24-3);}.cls-4{fill:url(#名称未設定グラデーション_24-4);}.cls-5{fill:url(#名称未設定グラデーション_24-5);}.cls-6{fill:#f6f0cc;}.cls-7{font-size:48px;font-family:HGSGyoshotai;}</style><linearGradient id="名称未設定グラデーション_24" x1="44.59" y1="11.58" x2="95.96" y2="11.58" gradientTransform="translate(4.26 56.13) rotate(-19.53)" gradientUnits="userSpaceOnUse"><stop offset="0.15" stop-color="#fff"/><stop offset="0.7" stop-color="#f7c6bd"/></linearGradient><linearGradient id="名称未設定グラデーション_24-2" x1="130.48" y1="-98.57" x2="182.78" y2="-98.57" gradientTransform="matrix(-0.03, -1, 1, -0.03, 152.25, 180.09)" xlink:href="#名称未設定グラデーション_24"/><linearGradient id="名称未設定グラデーション_24-3" x1="261.96" y1="-50.85" x2="313.3" y2="-50.85" gradientTransform="translate(315.88 77.66) rotate(-163.53)" xlink:href="#名称未設定グラデーション_24"/><linearGradient id="名称未設定グラデーション_24-4" x1="257.32" y1="88.51" x2="309.29" y2="88.51" gradientTransform="translate(269.02 -109.62) rotate(124.47)" xlink:href="#名称未設定グラデーション_24"/><linearGradient id="名称未設定グラデーション_24-5" x1="122.98" y1="127.78" x2="174.89" y2="127.78" gradientTransform="matrix(0.61, 0.79, -0.79, 0.61, 76.43, -122.93)" xlink:href="#名称未設定グラデーション_24"/></defs><ellipse class="cls-1" cx="74.36" cy="43.55" rx="25.63" ry="26.15"/><ellipse class="cls-2" cx="49.53" cy="26.15" rx="25.63" ry="26.15"/><ellipse class="cls-3" cx="25.63" cy="44.88" rx="25.63" ry="26.15"/><ellipse class="cls-4" cx="35.71" cy="73.85" rx="25.63" ry="26.15"/><ellipse class="cls-5" cx="65.82" cy="73.03" rx="25.63" ry="26.15"/><ellipse class="cls-6" cx="48.94" cy="39.9" rx="4.61" ry="4.71"/><ellipse class="cls-6" cx="37.01" cy="50.01" rx="4.61" ry="4.71"/><ellipse class="cls-6" cx="42.75" cy="64.7" rx="4.61" ry="4.71"/><ellipse class="cls-6" cx="58.22" cy="63.68" rx="4.61" ry="4.71"/><ellipse class="cls-6" cx="62.04" cy="48.35" rx="4.61" ry="4.71"/><text class="cls-7" transform="translate(93.17 71.34)">うまか堂</text></svg>